<svg width="155" height="119" viewBox="0 0 155 119" fill="none" xmlns="http://www.w3.org/2000/svg">
<path d="M57.106 11.2971L39.2612 21.8097V44.6097V67.2732L58.1793 78.4684L77.0974 89.6636L92.6612 80.5163C101.382 75.4648 109.969 70.1402 112.116 68.6384L115.739 66.0444L115.47 44.0636L115.068 21.9462L97.6255 11.4336C88.0994 5.6995 78.9758 0.921062 77.4999 0.921062C76.024 0.921062 66.7663 5.56298 57.106 11.2971ZM91.1853 11.9797C112.25 24.4037 111.848 22.0827 93.8688 32.5953C85.2818 37.6468 77.7683 41.7426 76.9632 41.7426C75.4874 41.7426 51.7391 27.8169 47.9823 24.6767C46.5065 23.448 45.9698 22.2193 46.6406 21.8097C47.4457 21.5366 54.02 17.5773 61.3994 13.072C68.7788 8.7031 75.7557 5.01687 76.8291 4.88034C78.0366 4.88034 84.4768 8.15699 91.1853 11.9797ZM63.8145 38.8756L75.4874 45.975V64.2696C75.4874 76.1474 74.9507 82.7007 74.1457 82.7007C73.3406 82.7007 65.8271 78.6049 57.3743 73.6899L41.9446 64.5426V46.5211C41.9446 36.6911 42.3472 28.0899 42.8838 27.6803C43.2864 27.1342 45.5673 27.9534 47.8482 29.3187C50.1291 30.6839 57.2401 35.0528 63.8145 38.8756ZM109.433 66.0444C105.139 69.3211 81.9276 82.7007 80.72 82.7007C80.0492 82.7007 79.5125 74.236 79.5125 63.86L79.6467 45.1558L95.3446 35.872L111.043 26.7247L111.445 45.4288C111.848 62.2217 111.579 64.4061 109.433 66.0444Z" fill="black"/>
<path d="M62.7411 14.3008C55.3617 18.8062 49.5923 22.902 49.8607 23.5846C50.2632 24.1307 56.5692 28.2265 63.9486 32.5954L77.2315 40.3774L90.6486 32.4589C97.8938 28.09 103.932 23.8577 104.066 23.175C104.2 21.9463 79.9149 6.51876 77.4999 6.38223C76.829 6.38223 70.1205 9.93193 62.7411 14.3008ZM76.9632 18.5331C77.634 18.5331 78.8416 17.1679 79.5124 15.393L80.72 12.3894V15.393C80.8541 18.6697 84.2084 19.7619 85.1476 17.0313C85.5501 15.9391 87.026 16.2122 89.9778 17.714C92.3928 18.9427 94.2712 20.308 94.2712 20.581C94.2712 20.9906 86.6235 21.2637 77.2315 21.2637H60.0577L63.4119 18.5331C67.0345 15.6661 70.1205 14.9834 70.1205 17.1679C70.1205 20.0349 74.1456 18.3966 74.2798 15.393L74.5481 12.3894L75.0848 15.393C75.3531 17.1679 76.2923 18.5331 76.9632 18.5331ZM70.1205 28.09C70.1205 31.3667 69.718 31.3667 64.7536 28.7727C59.521 26.0421 59.6551 25.3595 65.4245 25.3595C69.1813 25.3595 70.1205 25.9056 70.1205 28.09ZM75.0848 31.7762C74.6823 33.1415 74.4139 32.0493 74.4139 29.4553C74.4139 26.8613 74.6823 25.7691 75.0848 26.9978C75.3531 28.3631 75.3531 30.5475 75.0848 31.7762ZM80.4516 31.7762C80.0491 33.1415 79.7808 32.0493 79.7808 29.4553C79.7808 26.8613 80.0491 25.7691 80.4516 26.9978C80.72 28.3631 80.72 30.5475 80.4516 31.7762ZM90.5144 28.09C85.1476 31.5032 84.8793 31.5032 84.8793 28.09C84.8793 25.9056 85.8185 25.3595 89.9778 25.3595H94.9421L90.5144 28.09Z" fill="black"/>
<path d="M44.6281 47.4768V64.2697L57.6426 71.7786C64.8878 75.8745 71.4622 79.4242 72.4014 79.6972C73.8773 80.1068 74.1456 76.6936 73.8773 63.4505L73.4748 46.6577L60.0577 38.7391C52.6783 34.3703 46.2381 30.8206 45.7014 30.8206C45.0306 30.8206 44.6281 38.3295 44.6281 47.4768ZM56.8376 41.1966C60.9969 43.2445 61.5336 46.2481 57.911 46.9307C56.8376 47.0673 54.9592 45.4289 53.6175 43.108C50.7999 38.4661 51.2024 38.193 56.8376 41.1966ZM58.1793 57.8529C62.3386 65.0888 65.6929 71.2325 65.4245 71.5056C64.3512 72.5978 56.8376 66.7271 57.3743 65.2253C58.4476 62.2218 56.8376 60.72 53.8858 62.2218C52.41 63.0409 51.3366 63.1774 51.3366 62.3583C51.3366 61.6756 52.2758 60.8565 53.3492 60.3104C56.9718 58.9451 55.6301 56.3511 51.7391 57.4433C48.1165 58.2625 48.1165 58.2625 50.5316 55.6685C52.5441 53.3475 52.5441 52.8014 50.9341 51.7092C48.9215 50.617 48.1165 48.4325 48.519 44.6098C48.7873 41.7427 49.5924 42.9715 58.1793 57.8529ZM65.5587 49.2517C64.0828 50.3439 61.9361 51.2996 60.8627 51.2996C59.521 51.1631 59.9235 50.4804 62.0703 49.2517C66.4979 46.6577 68.7788 46.7942 65.5587 49.2517ZM67.5713 54.0301C64.6195 56.6242 62.0703 57.5798 62.0703 56.078C62.0703 55.3954 68.913 51.4361 70.1205 51.4361C70.523 51.4361 69.3155 52.6649 67.5713 54.0301ZM70.1205 63.8601V69.7307L67.4371 66.3176C64.3512 62.3583 64.0828 60.0373 66.4979 59.0816C69.718 57.7164 70.1205 58.2625 70.1205 63.8601Z" fill="black"/>
<path d="M94.003 38.7391L80.9884 46.5211L80.8542 63.1774C80.8542 72.4612 81.2568 79.9702 81.9276 79.9702C82.4643 79.9702 88.9045 76.4205 96.2839 72.0517L109.701 64.1331L110.103 47.4768C110.372 34.6433 110.103 30.8205 108.762 30.957C107.823 30.957 101.114 34.5067 94.003 38.7391ZM100.309 43.2445C98.9673 45.702 97.2231 47.2037 96.0156 46.9307C92.3929 46.2481 92.6613 43.9271 96.6864 41.4696C102.053 38.193 102.59 38.466 100.309 43.2445ZM106.347 47.2037C106.347 51.4361 105.944 52.3918 104.334 51.8457C101.517 50.6169 101.785 54.8493 104.737 56.7606C106.615 57.9894 106.481 58.1259 103.395 57.5798C98.8331 56.4876 97.2231 58.8085 101.114 60.8564C102.59 61.8121 103.529 62.7678 103.261 63.1774C102.858 63.4505 101.248 63.0409 99.504 62.2217C96.8206 60.7199 96.6864 60.8564 97.3573 63.4505C97.8939 65.7714 97.0889 67.1367 93.8688 69.1846C91.4537 70.5499 89.1728 71.7786 88.6362 71.7786C88.2336 71.7786 91.7221 64.9523 96.5522 56.7606C101.382 48.4325 105.542 41.7427 105.81 41.7427C106.078 41.7427 106.347 44.2002 106.347 47.2037ZM94.2713 51.5726C94.2713 52.9379 89.4412 50.6169 88.2336 48.569C87.697 47.7499 88.9045 47.8864 90.7829 48.8421C92.6613 49.6612 94.2713 50.89 94.2713 51.5726ZM90.2462 54.7127C92.3929 55.9415 92.7955 56.6241 91.4537 56.7606C90.3804 56.7606 88.2336 55.8049 86.7578 54.7127C83.5377 52.2552 85.8186 52.1187 90.2462 54.7127ZM88.0995 64.2696C85.2819 68.775 84.8794 68.6385 84.8794 62.9043C84.8794 58.399 85.1477 58.1259 87.5628 59.4912C90.112 60.8564 90.112 61.1295 88.0995 64.2696Z" fill="black"/>
<path d="M17.4982 107.224C17.4422 107.205 17.3722 107.182 17.2882 107.154C17.2042 107.126 17.0782 107.075 16.9102 107H10.4282C10.3349 106.879 10.2555 106.743 10.1902 106.594C10.1342 106.435 10.1062 106.277 10.1062 106.118C10.4142 106.118 10.6429 106.062 10.7922 105.95C10.9509 105.838 11.0302 105.651 11.0302 105.39V98.824C11.0302 98.5627 10.9555 98.3807 10.8062 98.278C10.6569 98.166 10.4282 98.11 10.1202 98.11C10.1202 97.9513 10.1482 97.7973 10.2042 97.648C10.2695 97.4893 10.3489 97.3493 10.4422 97.228H15.8742C16.0422 97.1533 16.2289 97.0973 16.4342 97.06C16.6395 97.0133 16.8309 96.99 17.0082 96.99C17.0922 97.1393 17.1855 97.3587 17.2882 97.648C17.4002 97.928 17.4982 98.208 17.5822 98.488C17.6662 98.768 17.7082 98.9873 17.7082 99.146C17.6335 99.2207 17.5122 99.2953 17.3442 99.37C17.1855 99.4447 17.0222 99.51 16.8542 99.566C16.6862 99.622 16.5462 99.664 16.4342 99.692C16.3315 99.384 16.1495 99.0947 15.8882 98.824C15.6362 98.5533 15.3235 98.418 14.9502 98.418H13.3682V101.372H14.3762C14.6375 101.372 14.8522 101.297 15.0202 101.148C15.1975 100.989 15.2862 100.723 15.2862 100.35C15.7062 100.35 16.0842 100.448 16.4202 100.644V103.248C16.1029 103.444 15.7295 103.542 15.3002 103.542C15.3002 103.169 15.2115 102.898 15.0342 102.73C14.8662 102.562 14.6515 102.478 14.3902 102.478H13.3682V105.768H15.0622C15.4729 105.768 15.8182 105.6 16.0982 105.264C16.3875 104.919 16.5649 104.513 16.6302 104.046H18.1282C18.1282 104.186 18.1049 104.405 18.0582 104.704C18.0209 104.993 17.9695 105.311 17.9042 105.656C17.8482 105.992 17.7829 106.305 17.7082 106.594C17.6335 106.883 17.5635 107.093 17.4982 107.224ZM22.2055 107C21.9815 106.757 21.8695 106.459 21.8695 106.104C22.2521 106.104 22.5321 106.053 22.7095 105.95C22.8868 105.847 23.0641 105.67 23.2415 105.418L25.5935 102.198L23.3535 98.964C23.1481 98.6653 22.9241 98.4507 22.6815 98.32C22.4481 98.18 22.1961 98.11 21.9255 98.11C21.9255 97.7553 22.0281 97.4613 22.2335 97.228H26.3635C26.5875 97.4707 26.6995 97.7647 26.6995 98.11C26.4101 98.11 26.2048 98.1473 26.0835 98.222C25.9715 98.2873 25.9155 98.3713 25.9155 98.474C25.9155 98.5487 25.9388 98.6327 25.9855 98.726C26.0321 98.81 26.0835 98.8987 26.1395 98.992L27.1895 100.686L28.0855 99.048C28.1228 98.9827 28.1555 98.9127 28.1835 98.838C28.2115 98.754 28.2255 98.684 28.2255 98.628C28.2255 98.4787 28.1601 98.3573 28.0295 98.264C27.8988 98.1613 27.7261 98.11 27.5115 98.11C27.5115 97.7553 27.6188 97.4613 27.8335 97.228H31.0255C31.2495 97.4707 31.3615 97.7647 31.3615 98.11C30.9788 98.11 30.6941 98.166 30.5075 98.278C30.3301 98.39 30.1575 98.5673 29.9895 98.81L27.9315 101.792L30.2135 105.236C30.3815 105.488 30.5821 105.698 30.8155 105.866C31.0488 106.025 31.3148 106.104 31.6135 106.104C31.6135 106.468 31.5108 106.767 31.3055 107H27.2735C27.0495 106.757 26.9375 106.459 26.9375 106.104C27.2175 106.104 27.4135 106.071 27.5255 106.006C27.6375 105.931 27.6935 105.838 27.6935 105.726C27.6935 105.651 27.6748 105.572 27.6375 105.488C27.6001 105.404 27.5535 105.315 27.4975 105.222L26.3915 103.43L25.1455 105.222C25.0615 105.343 25.0195 105.465 25.0195 105.586C25.0195 105.735 25.0801 105.861 25.2015 105.964C25.3228 106.057 25.4908 106.104 25.7055 106.104C25.7055 106.468 25.5981 106.767 25.3835 107H22.2055ZM42.6955 107.224C42.6395 107.205 42.5695 107.182 42.4855 107.154C42.4015 107.126 42.2755 107.075 42.1075 107H35.6255C35.5321 106.879 35.4528 106.743 35.3875 106.594C35.3315 106.435 35.3035 106.277 35.3035 106.118C35.6115 106.118 35.8401 106.062 35.9895 105.95C36.1481 105.838 36.2275 105.651 36.2275 105.39V98.824C36.2275 98.5627 36.1528 98.3807 36.0035 98.278C35.8541 98.166 35.6255 98.11 35.3175 98.11C35.3175 97.9513 35.3455 97.7973 35.4015 97.648C35.4668 97.4893 35.5461 97.3493 35.6395 97.228H41.0715C41.2395 97.1533 41.4261 97.0973 41.6315 97.06C41.8368 97.0133 42.0281 96.99 42.2055 96.99C42.2895 97.1393 42.3828 97.3587 42.4855 97.648C42.5975 97.928 42.6955 98.208 42.7795 98.488C42.8635 98.768 42.9055 98.9873 42.9055 99.146C42.8308 99.2207 42.7095 99.2953 42.5415 99.37C42.3828 99.4447 42.2195 99.51 42.0515 99.566C41.8835 99.622 41.7435 99.664 41.6315 99.692C41.5288 99.384 41.3468 99.0947 41.0855 98.824C40.8335 98.5533 40.5208 98.418 40.1475 98.418H38.5655V101.372H39.5735C39.8348 101.372 40.0495 101.297 40.2175 101.148C40.3948 100.989 40.4835 100.723 40.4835 100.35C40.9035 100.35 41.2815 100.448 41.6175 100.644V103.248C41.3001 103.444 40.9268 103.542 40.4975 103.542C40.4975 103.169 40.4088 102.898 40.2315 102.73C40.0635 102.562 39.8488 102.478 39.5875 102.478H38.5655V105.768H40.2595C40.6701 105.768 41.0155 105.6 41.2955 105.264C41.5848 104.919 41.7621 104.513 41.8275 104.046H43.3255C43.3255 104.186 43.3021 104.405 43.2555 104.704C43.2181 104.993 43.1668 105.311 43.1015 105.656C43.0455 105.992 42.9801 106.305 42.9055 106.594C42.8308 106.883 42.7608 107.093 42.6955 107.224ZM51.8004 107.196C51.007 107.196 50.2697 107.009 49.5884 106.636C48.907 106.263 48.361 105.698 47.9504 104.942C47.5397 104.177 47.3344 103.22 47.3344 102.072C47.3344 100.971 47.5164 100.051 47.8804 99.314C48.2537 98.5767 48.767 98.0213 49.4204 97.648C50.083 97.2653 50.8484 97.074 51.7164 97.074C51.9217 97.074 52.155 97.102 52.4164 97.158C52.6777 97.214 52.9064 97.2887 53.1024 97.382C53.1957 97.3353 53.3217 97.2933 53.4804 97.256C53.639 97.2093 53.7977 97.1673 53.9564 97.13C54.1244 97.0927 54.255 97.074 54.3484 97.074C54.4697 97.3727 54.5584 97.7273 54.6144 98.138C54.6704 98.5393 54.7077 98.9407 54.7264 99.342C54.745 99.734 54.7544 100.07 54.7544 100.35H53.1724C53.0977 99.7433 52.9297 99.2487 52.6684 98.866C52.4164 98.4833 52.085 98.292 51.6744 98.292C51.133 98.292 50.685 98.5487 50.3304 99.062C49.985 99.5753 49.8124 100.415 49.8124 101.582C49.8124 102.543 49.943 103.313 50.2044 103.892C50.4657 104.461 50.811 104.872 51.2404 105.124C51.6697 105.367 52.1317 105.488 52.6264 105.488C53.0557 105.488 53.4197 105.409 53.7184 105.25C54.017 105.082 54.227 104.909 54.3484 104.732C54.4697 104.816 54.563 104.947 54.6284 105.124C54.703 105.292 54.7404 105.441 54.7404 105.572C54.7404 105.787 54.6237 106.025 54.3904 106.286C54.1664 106.538 53.835 106.753 53.3964 106.93C52.967 107.107 52.435 107.196 51.8004 107.196ZM74.9435 107.154C74.7288 107.154 74.4861 107.14 74.2155 107.112C73.9448 107.084 73.5995 107.056 73.1795 107.028C72.7595 107.009 72.2088 107 71.5275 107C71.3221 106.739 71.2195 106.44 71.2195 106.104C71.5275 106.104 71.7468 106.053 71.8775 105.95C72.0175 105.838 72.0875 105.651 72.0875 105.39V98.81C72.0875 98.558 72.0175 98.3807 71.8775 98.278C71.7468 98.166 71.5275 98.11 71.2195 98.11C71.2195 97.7553 71.3221 97.4613 71.5275 97.228C72.4515 97.228 73.2308 97.2 73.8655 97.144C74.5095 97.088 74.9341 97.06 75.1395 97.06C75.9515 97.06 76.6515 97.1907 77.2395 97.452C77.8275 97.704 78.3128 98.054 78.6955 98.502C79.0781 98.9407 79.3628 99.454 79.5495 100.042C79.7361 100.621 79.8295 101.241 79.8295 101.904C79.8295 102.623 79.7361 103.299 79.5495 103.934C79.3628 104.569 79.0688 105.129 78.6675 105.614C78.2755 106.09 77.7715 106.468 77.1555 106.748C76.5395 107.019 75.8021 107.154 74.9435 107.154ZM74.8315 105.992C75.3448 105.992 75.7881 105.866 76.1615 105.614C76.5348 105.362 76.8241 104.951 77.0295 104.382C77.2348 103.813 77.3375 103.057 77.3375 102.114C77.3375 100.751 77.0995 99.7573 76.6235 99.132C76.1475 98.4973 75.5128 98.18 74.7195 98.18C74.6541 98.18 74.5935 98.18 74.5375 98.18C74.4815 98.18 74.4301 98.1893 74.3835 98.208V105.964C74.4581 105.973 74.5328 105.983 74.6075 105.992C74.6915 105.992 74.7661 105.992 74.8315 105.992ZM84.2706 107C84.0653 106.767 83.9626 106.468 83.9626 106.104C84.2706 106.104 84.4853 106.053 84.6066 105.95C84.7373 105.847 84.8026 105.665 84.8026 105.404V98.824C84.8026 98.5627 84.7373 98.3807 84.6066 98.278C84.4853 98.166 84.2706 98.11 83.9626 98.11C83.9626 97.7553 84.0653 97.4613 84.2706 97.228H87.6726C87.766 97.34 87.8406 97.4753 87.8966 97.634C87.9526 97.7927 87.9806 97.9513 87.9806 98.11C87.6726 98.11 87.4533 98.166 87.3226 98.278C87.2013 98.3807 87.1406 98.5627 87.1406 98.824V105.404C87.1406 105.665 87.2013 105.847 87.3226 105.95C87.4533 106.053 87.6726 106.104 87.9806 106.104C87.9806 106.272 87.9526 106.435 87.8966 106.594C87.8406 106.753 87.766 106.888 87.6726 107H84.2706ZM96.9261 107.196C95.9368 107.196 95.0781 106.986 94.3501 106.566C93.6314 106.146 93.0761 105.563 92.6841 104.816C92.2921 104.069 92.0961 103.215 92.0961 102.254C92.0961 101.106 92.2921 100.149 92.6841 99.384C93.0761 98.6187 93.6174 98.0447 94.3081 97.662C94.9988 97.27 95.7921 97.074 96.6881 97.074C96.9028 97.074 97.1501 97.0927 97.4301 97.13C97.7194 97.1673 98.0368 97.2513 98.3821 97.382C98.4754 97.3353 98.6014 97.2933 98.7601 97.256C98.9188 97.2093 99.0774 97.1673 99.2361 97.13C99.3948 97.0927 99.5208 97.074 99.6141 97.074C99.7354 97.3727 99.8241 97.718 99.8801 98.11C99.9361 98.4927 99.9734 98.8753 99.9921 99.258C100.011 99.6313 100.02 99.958 100.02 100.238H98.6621C98.5688 99.6313 98.3354 99.1693 97.9621 98.852C97.5888 98.5253 97.1501 98.362 96.6461 98.362C96.2728 98.362 95.9368 98.4647 95.6381 98.67C95.3394 98.8753 95.1014 99.2347 94.9241 99.748C94.7561 100.252 94.6721 100.966 94.6721 101.89C94.6721 102.879 94.7514 103.663 94.9101 104.242C95.0781 104.811 95.3161 105.222 95.6241 105.474C95.9414 105.717 96.3241 105.838 96.7721 105.838C97.2761 105.838 97.6448 105.717 97.8781 105.474V103.878C97.8781 103.635 97.7708 103.463 97.5561 103.36C97.3414 103.248 97.0148 103.192 96.5761 103.192C96.5761 103.033 96.6088 102.842 96.6741 102.618C96.7394 102.394 96.8188 102.226 96.9121 102.114H99.9361C100.216 102.114 100.426 102.179 100.566 102.31C100.706 102.431 100.795 102.567 100.832 102.716C100.879 102.865 100.902 102.977 100.902 103.052C100.902 103.145 100.879 103.229 100.832 103.304C100.683 103.304 100.538 103.313 100.398 103.332C100.267 103.341 100.151 103.369 100.048 103.416V105.026C100.048 105.231 100.062 105.376 100.09 105.46C100.127 105.544 100.165 105.609 100.202 105.656C100.23 105.684 100.253 105.717 100.272 105.754C100.291 105.782 100.3 105.833 100.3 105.908C100.3 106.076 100.151 106.263 99.8521 106.468C99.5534 106.664 99.1474 106.837 98.6341 106.986C98.1301 107.126 97.5608 107.196 96.9261 107.196ZM105.134 107C104.929 106.767 104.826 106.468 104.826 106.104C105.134 106.104 105.349 106.053 105.47 105.95C105.601 105.847 105.666 105.665 105.666 105.404V98.824C105.666 98.5627 105.601 98.3807 105.47 98.278C105.349 98.166 105.134 98.11 104.826 98.11C104.826 97.7553 104.929 97.4613 105.134 97.228H108.536C108.629 97.34 108.704 97.4753 108.76 97.634C108.816 97.7927 108.844 97.9513 108.844 98.11C108.536 98.11 108.317 98.166 108.186 98.278C108.065 98.3807 108.004 98.5627 108.004 98.824V105.404C108.004 105.665 108.065 105.847 108.186 105.95C108.317 106.053 108.536 106.104 108.844 106.104C108.844 106.272 108.816 106.435 108.76 106.594C108.704 106.753 108.629 106.888 108.536 107H105.134ZM114.819 107C114.613 106.767 114.511 106.468 114.511 106.104C115.015 106.104 115.402 106.043 115.673 105.922C115.953 105.801 116.093 105.609 116.093 105.348V98.334H115.785C115.542 98.334 115.299 98.4087 115.057 98.558C114.823 98.7073 114.618 98.9827 114.441 99.384C114.273 99.776 114.156 100.35 114.091 101.106C113.979 101.097 113.839 101.087 113.671 101.078C113.503 101.069 113.339 101.055 113.181 101.036C113.031 101.008 112.915 100.98 112.831 100.952C112.831 100.756 112.84 100.481 112.859 100.126C112.877 99.7713 112.905 99.3933 112.943 98.992C112.98 98.5907 113.027 98.2173 113.083 97.872C113.148 97.5173 113.223 97.2467 113.307 97.06C113.475 97.06 113.666 97.074 113.881 97.102C114.095 97.13 114.287 97.172 114.455 97.228H119.915C120.092 97.172 120.283 97.13 120.489 97.102C120.694 97.074 120.885 97.06 121.063 97.06C121.147 97.2467 121.217 97.5173 121.273 97.872C121.338 98.2173 121.389 98.5907 121.427 98.992C121.464 99.3933 121.492 99.7713 121.511 100.126C121.529 100.481 121.539 100.756 121.539 100.952C121.417 100.999 121.221 101.036 120.951 101.064C120.689 101.092 120.465 101.106 120.279 101.106C120.223 100.35 120.129 99.776 119.999 99.384C119.868 98.9827 119.695 98.7073 119.481 98.558C119.266 98.4087 118.991 98.334 118.655 98.334H118.417V105.348C118.417 105.852 118.911 106.104 119.901 106.104C119.901 106.468 119.793 106.767 119.579 107H114.819ZM124.573 107C124.359 106.767 124.251 106.468 124.251 106.104C124.503 106.104 124.737 106.029 124.951 105.88C125.175 105.731 125.339 105.502 125.441 105.194L127.737 98.418C127.364 98.2967 126.893 98.236 126.323 98.236C126.323 97.8347 126.435 97.4987 126.659 97.228H130.495L133.099 105.152C133.202 105.46 133.365 105.698 133.589 105.866C133.813 106.025 134.047 106.104 134.289 106.104C134.289 106.468 134.182 106.767 133.967 107H130.173C129.959 106.767 129.851 106.468 129.851 106.104C130.094 106.104 130.285 106.053 130.425 105.95C130.575 105.838 130.649 105.665 130.649 105.432C130.649 105.348 130.64 105.25 130.621 105.138C130.612 105.026 130.589 104.905 130.551 104.774L130.467 104.48H127.331L127.247 104.774C127.21 104.895 127.177 105.007 127.149 105.11C127.131 105.213 127.121 105.306 127.121 105.39C127.121 105.642 127.201 105.824 127.359 105.936C127.518 106.048 127.737 106.104 128.017 106.104C128.017 106.468 127.91 106.767 127.695 107H124.573ZM127.639 103.388H130.159L129.165 99.916C129.081 99.636 128.974 99.398 128.843 99.202L127.639 103.388ZM138.247 107C138.032 106.767 137.925 106.468 137.925 106.104C138.242 106.104 138.466 106.053 138.597 105.95C138.727 105.847 138.793 105.665 138.793 105.404V98.824C138.793 98.5627 138.727 98.3807 138.597 98.278C138.466 98.166 138.242 98.11 137.925 98.11C137.925 97.9513 137.953 97.7927 138.009 97.634C138.065 97.4753 138.144 97.34 138.247 97.228H141.845C141.947 97.34 142.022 97.4753 142.069 97.634C142.125 97.7927 142.153 97.9513 142.153 98.11C141.779 98.11 141.509 98.166 141.341 98.278C141.173 98.3807 141.089 98.5627 141.089 98.824V105.81H141.957C142.479 105.81 142.885 105.581 143.175 105.124C143.473 104.657 143.623 104.032 143.623 103.248H144.603C144.724 103.332 144.822 103.491 144.897 103.724C144.971 103.948 145.027 104.195 145.065 104.466C145.102 104.737 145.121 104.984 145.121 105.208C145.121 105.768 145.023 106.207 144.827 106.524C144.631 106.841 144.29 107 143.805 107H138.247Z" fill="black"/>
</svg>
